<?xml version="1.0" standalone="no"?>
<!DOCTYPE svg PUBLIC "-//W3C//DTD SVG 20010904//EN"
 "http://www.w3.org/TR/2001/REC-SVG-20010904/DTD/svg10.dtd">
<svg version="1.0" xmlns="http://www.w3.org/2000/svg"
 width="1024.000000pt" height="1024.000000pt" viewBox="0 0 1024.000000 1024.000000"
 preserveAspectRatio="xMidYMid meet">
<metadata>
Created by potrace 1.14, written by Peter Selinger 2001-2017
</metadata>
<g transform="translate(0.000000,1024.000000) scale(0.100000,-0.100000)"
fill="#000000" stroke="none">
<path d="M4820 7305 c-298 -55 -509 -125 -740 -247 -216 -114 -365 -226 -561
-420 -367 -365 -598 -840 -660 -1355 l-12 -102 -56 -11 c-31 -7 -94 -30 -141
-52 -116 -55 -240 -178 -294 -291 -87 -180 -91 -410 -11 -586 61 -133 175
-253 304 -320 109 -56 152 -62 426 -61 l240 0 112 112 c62 62 113 116 113 120
0 4 -163 8 -362 10 l-363 3 -55 26 c-196 92 -293 384 -195 586 50 101 159 193
260 218 49 12 4533 6 4580 -6 55 -15 128 -63 175 -116 127 -145 141 -375 32
-538 -41 -62 -101 -114 -167 -146 l-60 -29 -1284 0 -1284 0 -151 154 c-127
130 -157 156 -188 161 -60 11 -103 -2 -160 -49 -29 -24 -258 -251 -509 -503
-433 -437 -459 -460 -500 -467 -97 -16 -169 -63 -217 -146 -24 -39 -27 -56
-27 -130 0 -98 18 -141 82 -201 50 -48 86 -66 153 -74 110 -13 215 47 266 150
23 49 26 64 22 128 -3 39 -12 86 -21 103 l-16 31 422 421 c271 270 431 423
449 427 38 10 62 -7 163 -110 145 -149 67 -136 824 -140 l645 -4 200 -203
c110 -112 242 -246 293 -298 l93 -96 -16 -47 c-11 -32 -15 -70 -12 -117 3 -61
8 -76 43 -126 56 -80 125 -118 214 -118 190 -1 317 181 256 365 -34 100 -151
189 -250 189 -27 0 -50 20 -185 161 l-153 161 67 66 66 67 383 5 382 5 70 28
c91 36 151 75 213 140 140 143 202 292 202 487 0 196 -61 342 -199 480 -97 96
-191 150 -298 170 l-61 12 -7 52 c-64 517 -281 991 -619 1354 -98 105 -312
288 -426 363 -243 162 -522 273 -870 346 -105 22 -516 27 -620 8z m418 -595
c137 -12 260 -38 385 -81 92 -31 268 -114 319 -150 14 -11 31 -19 36 -19 33 0
6 -40 -150 -218 -95 -108 -179 -205 -186 -214 -11 -14 -6 -22 35 -59 26 -24
75 -72 108 -107 l61 -63 94 108 c191 218 462 513 480 523 10 6 46 10 80 10
l61 0 -16 -29 c-8 -17 -68 -93 -134 -170 -190 -223 -186 -217 -150 -261 58
-72 148 -216 191 -307 56 -116 114 -328 120 -433 l3 -65 -270 -3 -270 -2 -13
66 c-63 330 -379 667 -706 753 -136 36 -123 58 -128 -211 -3 -128 -3 -241 0
-250 2 -10 25 -24 56 -34 84 -27 160 -72 214 -127 51 -52 122 -159 122 -184 0
-11 -91 -13 -480 -13 -264 0 -480 2 -480 5 0 3 14 33 31 66 58 115 157 198
290 243 l74 25 3 250 2 251 -26 0 c-51 0 -188 -42 -268 -82 -191 -96 -341
-239 -453 -433 -44 -76 -62 -127 -88 -247 l-17 -78 -274 0 -274 0 0 23 c0 12
7 65 14 117 31 203 134 444 266 619 l70 93 -54 67 c-30 36 -105 125 -165 196
-61 72 -111 136 -111 143 0 8 20 12 69 12 66 0 71 -2 96 -32 15 -18 96 -107
180 -198 84 -91 193 -212 242 -270 49 -58 97 -111 106 -119 15 -12 29 -2 125
90 l108 104 -61 70 c-34 39 -116 132 -183 207 -67 76 -122 142 -122 147 0 12
135 91 230 135 256 117 518 161 808 136z"/>
<path d="M2895 4761 c-119 -55 -168 -195 -111 -316 54 -116 194 -170 301 -115
l39 20 57 -61 c48 -52 60 -60 80 -54 68 21 66 59 -8 136 -52 55 -55 61 -45 85
17 35 15 128 -3 170 -23 56 -72 111 -118 133 -55 27 -137 27 -192 2z m152
-111 c56 -33 82 -116 54 -168 -58 -108 -231 -61 -231 62 0 34 7 52 27 76 44
53 96 63 150 30z"/>
<path d="M4304 3518 c-105 -108 -304 -328 -304 -336 0 -11 195 -127 271 -161
413 -186 914 -221 1376 -96 111 29 265 86 348 127 76 38 205 118 205 127 0 9
-99 119 -248 278 l-114 121 -81 -38 c-106 -50 -302 -106 -442 -126 -267 -40
-615 12 -853 126 -46 22 -87 40 -91 40 -4 0 -34 -28 -67 -62z"/>
</g>
</svg>
